<svg width="2364" height="712" viewBox="0 0 2364 712" fill="none" xmlns="http://www.w3.org/2000/svg">
<g clip-path="url(#clip0)">
<path fill-rule="evenodd" clip-rule="evenodd" d="M1466.58 556.806C1329.2 658.006 1130.09 712 958.648 712C718.266 712 501.86 623.141 338.141 475.352C325.278 463.731 336.803 447.893 352.238 456.943C528.924 559.686 747.388 621.496 973.055 621.496C1125.25 621.496 1292.67 590.025 1446.62 524.718C1469.87 514.845 1489.32 539.939 1466.58 556.806Z" fill="#FF9900"/>
<path fill-rule="evenodd" clip-rule="evenodd" d="M1523.69 491.499C1506.2 469.079 1407.62 480.906 1363.37 486.151C1349.89 487.797 1347.83 476.072 1359.97 467.639C1438.49 412.411 1567.32 428.352 1582.35 446.864C1597.37 465.479 1578.44 594.55 1504.65 656.155C1493.33 665.617 1482.53 660.577 1487.57 648.03C1504.14 606.686 1541.29 514.022 1523.69 491.499Z" fill="#FF9900"/>
<path fill-rule="evenodd" clip-rule="evenodd" d="M1366.45 77.7517V24.0663C1366.45 15.9415 1372.63 10.4907 1380.04 10.4907H1620.52C1628.24 10.4907 1634.41 16.0444 1634.41 24.0663V70.0383C1634.31 77.7517 1627.83 87.8305 1616.3 103.772L1491.69 281.591C1537.99 280.46 1586.87 287.351 1628.86 311.005C1638.33 316.353 1640.9 324.169 1641.62 331.883V389.168C1641.62 396.984 1632.97 406.137 1623.92 401.406C1549.93 362.634 1451.66 358.417 1369.85 401.818C1361.52 406.343 1352.77 397.293 1352.77 389.476V335.071C1352.77 326.329 1352.87 311.417 1361.62 298.15L1505.99 91.2244H1380.35C1372.63 91.2244 1366.45 85.7737 1366.45 77.7517Z" fill="white"/>
<path fill-rule="evenodd" clip-rule="evenodd" d="M489.203 412.72H416.038C409.041 412.205 403.484 406.96 402.97 400.275V24.9922C402.97 17.4844 409.247 11.5193 417.068 11.5193H485.292C492.393 11.8277 498.052 17.2787 498.567 24.0665V73.1238H499.905C517.707 25.712 551.151 3.60022 596.222 3.60022C642.014 3.60022 670.621 25.712 691.202 73.1238C708.902 25.712 749.137 3.60022 792.253 3.60022C822.919 3.60022 856.465 16.2502 876.943 44.6356C900.096 76.2092 895.363 122.078 895.363 162.291L895.26 399.144C895.26 406.652 888.983 412.72 881.162 412.72H808.1C800.794 412.205 794.929 406.343 794.929 399.144V200.241C794.929 184.403 796.37 144.91 792.871 129.895C787.417 104.697 771.055 97.601 749.857 97.601C732.158 97.601 713.635 109.428 706.123 128.352C698.611 147.275 699.332 178.952 699.332 200.241V399.144C699.332 406.652 693.055 412.72 685.234 412.72H612.172C604.763 412.205 599.001 406.343 599.001 399.144L598.898 200.241C598.898 158.383 605.792 96.7783 553.826 96.7783C501.243 96.7783 503.301 156.84 503.301 200.241V399.144C503.301 406.652 497.023 412.72 489.203 412.72" fill="white"/>
<path fill-rule="evenodd" clip-rule="evenodd" d="M1841.46 3.60022C1950.02 3.60022 2008.78 96.7783 2008.78 215.256C2008.78 329.723 1943.85 420.536 1841.46 420.536C1734.85 420.536 1676.81 327.358 1676.81 211.245C1676.81 94.4128 1735.57 3.60022 1841.46 3.60022ZM1842.07 80.2202C1788.15 80.2202 1784.76 153.652 1784.76 199.418C1784.76 245.287 1784.04 343.196 1841.46 343.196C1898.16 343.196 1900.83 264.211 1900.83 216.079C1900.83 184.403 1899.49 146.556 1889.92 116.525C1881.69 90.4019 1865.33 80.2202 1842.07 80.2202Z" fill="white"/>
<path fill-rule="evenodd" clip-rule="evenodd" d="M2149.55 412.72H2076.69C2069.39 412.205 2063.52 406.343 2063.52 399.144L2063.42 23.7579C2064.04 16.8673 2070.11 11.5193 2077.52 11.5193H2145.33C2151.71 11.8277 2156.96 16.1474 2158.4 22.0096V79.3974H2159.74C2180.21 28.0775 2208.92 3.60022 2259.45 3.60022C2292.28 3.60022 2324.28 15.4275 2344.86 47.8238C2364 77.8547 2364 128.352 2364 164.656V400.892C2363.18 407.475 2357.11 412.72 2349.9 412.72H2276.53C2269.84 412.205 2264.29 407.269 2263.57 400.892V197.053C2263.57 156.017 2268.3 95.9555 2217.77 95.9555C2199.97 95.9555 2183.61 107.886 2175.48 125.986C2165.19 148.921 2163.85 171.753 2163.85 197.053V399.144C2163.75 406.652 2157.37 412.72 2149.55 412.72" fill="white"/>
<path fill-rule="evenodd" clip-rule="evenodd" d="M1174.75 233.46C1174.75 261.948 1175.47 285.705 1161.06 311.005C1149.43 331.575 1130.91 344.225 1110.43 344.225C1082.34 344.225 1065.87 322.833 1065.87 291.259C1065.87 228.935 1121.75 217.622 1174.75 217.622V233.46ZM1248.53 411.691C1243.69 416.011 1236.69 416.319 1231.24 413.44C1206.95 393.282 1202.53 383.923 1189.25 364.691C1149.12 405.623 1120.62 417.862 1068.65 417.862C1007.01 417.862 959.163 379.912 959.163 303.909C959.163 244.567 991.269 204.149 1037.16 184.403C1076.88 166.919 1132.35 163.834 1174.75 159V149.538C1174.75 132.157 1176.08 111.588 1165.79 96.5726C1156.94 83.0998 1139.86 77.5461 1124.73 77.5461C1096.85 77.5461 1072.05 91.8417 1065.98 121.461C1064.74 128.043 1059.91 134.523 1053.22 134.831L982.316 127.22C976.348 125.884 969.659 121.05 971.408 111.897C987.667 25.9177 1065.46 0.000610352 1135.02 0.000610352C1170.63 0.000610352 1217.14 9.46242 1245.23 36.4079C1280.84 69.627 1277.44 113.953 1277.44 162.188V276.141C1277.44 310.388 1291.64 325.404 1305.02 343.916C1309.65 350.498 1310.68 358.417 1304.71 363.354C1289.79 375.798 1263.24 398.938 1248.63 411.897L1248.53 411.691" fill="white"/>
<path fill-rule="evenodd" clip-rule="evenodd" d="M215.583 233.46C215.583 261.948 216.303 285.705 201.896 311.005C190.268 331.574 171.849 344.224 151.268 344.224C123.175 344.224 106.814 322.832 106.814 291.259C106.814 228.934 162.69 217.621 215.583 217.621V233.46ZM289.364 411.691C284.528 416.01 277.53 416.319 272.077 413.439C247.791 393.281 243.469 383.923 230.092 364.69C189.96 405.623 161.558 417.862 109.489 417.862C47.9529 417.862 0 379.912 0 303.909C0 244.567 32.2088 204.149 78.0008 184.402C117.721 166.918 173.186 163.833 215.583 158.999V149.538C215.583 132.157 216.92 111.588 206.733 96.5722C197.78 83.0994 180.698 77.5458 165.674 77.5458C137.788 77.5458 112.885 91.8413 106.814 121.461C105.579 128.043 100.742 134.522 94.1566 134.831L23.1533 127.22C17.1849 125.883 10.599 121.049 12.2455 111.896C28.6071 25.9174 106.299 0.000244141 175.862 0.000244141C211.466 0.000244141 257.979 9.46205 286.071 36.4076C321.676 69.6266 318.28 113.953 318.28 162.188V276.14C318.28 310.388 332.481 325.403 345.858 343.916C350.592 350.498 351.621 358.417 345.652 363.353C330.731 375.798 304.182 398.938 289.57 411.897L289.364 411.69" fill="white"/>
</g>
<defs>
<clipPath id="clip0">
<rect width="2364" height="712" fill="white"/>
</clipPath>
</defs>
</svg>
